<svg data-v-423bf9ae="" xmlns="http://www.w3.org/2000/svg" viewBox="0 0 315 90" class="iconLeft"><!----><!----><!----><g data-v-423bf9ae="" id="3981123c-75a9-4f34-bd1f-95f729e88967" fill="#000000" transform="matrix(5.410279921920812,0,0,5.410279921920812,117.40306091208062,0.7168587696380513)"><path d="M3.62 6.34C1.93 6.34 0.48 7.67 0.48 10.02C0.48 12.55 1.93 13.73 3.49 13.73C4.48 13.73 5.22 13.13 5.56 12.36L5.56 13.52L7.92 13.52L7.92 6.55L5.56 6.55L5.56 7.19C5.11 6.70 4.35 6.34 3.62 6.34ZM4.12 8.64C4.63 8.64 5.15 8.89 5.56 9.21L5.56 9.88C5.56 10.90 4.77 11.35 4.18 11.35C3.43 11.35 2.94 10.77 2.94 10.02C2.94 9.28 3.43 8.64 4.12 8.64ZM13.97 6.41C13.10 6.41 12.62 7.05 12.18 7.79L12.18 6.55L9.83 6.55L9.83 13.52L12.18 13.52L12.18 9.94C12.50 9.32 12.99 8.90 13.63 8.90C14.11 8.90 14.42 9.02 14.77 9.23L14.77 6.62C14.53 6.49 14.27 6.41 13.97 6.41ZM17.81 5.48C18.59 5.48 19.29 4.84 19.29 4.06C19.29 3.27 18.59 2.64 17.81 2.64C17.02 2.64 16.35 3.27 16.35 4.06C16.35 4.84 17.02 5.48 17.81 5.48ZM19.06 6.55L15.57 6.55L15.57 8.46L16.71 8.46L16.71 13.52L19.06 13.52ZM23.50 6.34C21.81 6.34 20.36 7.67 20.36 10.02C20.36 12.55 21.81 13.73 23.37 13.73C24.36 13.73 25.10 13.13 25.44 12.36L25.44 13.52L27.79 13.52L27.79 6.55L25.44 6.55L25.44 7.19C24.99 6.70 24.23 6.34 23.50 6.34ZM23.99 8.64C24.51 8.64 25.03 8.89 25.44 9.21L25.44 9.88C25.44 10.90 24.65 11.35 24.06 11.35C23.31 11.35 22.82 10.77 22.82 10.02C22.82 9.28 23.31 8.64 23.99 8.64ZM34.03 6.34C33.10 6.34 32.50 6.85 32.06 7.45L32.06 6.55L29.71 6.55L29.71 13.52L32.06 13.52L32.06 9.31C32.31 8.94 32.65 8.64 33.15 8.64C33.63 8.64 34.08 8.89 34.08 9.58L34.10 13.52L36.45 13.52L36.45 9.21C36.45 7.33 35.45 6.34 34.03 6.34Z"></path></g><defs data-v-423bf9ae=""><linearGradient data-v-423bf9ae="" gradientTransform="rotate(25)" id="6375679e-32e6-4deb-8e20-9241edcb4abc" x1="0%" y1="0%" x2="100%" y2="0%"><stop data-v-423bf9ae="" offset="0%" style="stop-color: rgb(233, 142, 13); stop-opacity: 1;"></stop><stop data-v-423bf9ae="" offset="100%" style="stop-color: rgb(21, 54, 241); stop-opacity: 1;"></stop></linearGradient></defs><g data-v-423bf9ae="" id="2384980e-cde9-4c23-abfe-2a38b9468ad2" transform="matrix(1,0,0,1,0,-4)" stroke="none" fill="url(#6375679e-32e6-4deb-8e20-9241edcb4abc)"><path d="M94.545 4H6.003C2.693 4 0 6.4 0 9.709V74.24C0 77.55 2.693 81 6.003 81h88.542c3.311 0 5.455-3.45 5.455-6.76V9.709C100 6.4 97.855 4 94.545 4zm-2.261 67H88.51c-1.25 0-2.265-.748-2.265-2 0-1.25 1.015-2 2.265-2h3.774c1.251 0 2.265.75 2.265 2 0 1.252-1.014 2-2.265 2zM5 60V9h89.545l.004 51H5zM27.578 90.998h45.396V94H27.578z"></path><path d="M27.578 89.247h45.396v3.002H27.578zM70.907 80.243H29.641a5.94 5.94 0 0 1 5.939 5.94c0 .021-.006.04-.006.062h29.399c0-.022-.007-.042-.007-.062a5.942 5.942 0 0 1 5.941-5.94z"></path></g><!----></svg>