<svg data-v-423bf9ae="" xmlns="http://www.w3.org/2000/svg" viewBox="0 0 176.38484030403768 60" class="font"><!----><!----><!----><g data-v-423bf9ae="" id="ec103ecc-8c84-4f59-812b-ea8c408771f9" fill="black" transform="matrix(5.830903811703725,0,0,5.830903811703725,-4.897962522911271,-27.1720113496512)"><path d="M2.20 12.01L5.01 12.01L5.01 13.73L2.20 13.73ZM2.46 14.95L4.02 14.95L5.01 14.38L6.01 14.95L6.37 14.95L6.37 8.82L4.75 7.88L1.54 7.88L1.54 9.10L5.01 9.10L5.01 10.79L2.46 10.79L0.84 11.73L0.84 14.01ZM12.52 9.10L12.52 7.88L10.96 7.88L9.97 8.46L9.63 7.88L8.61 7.88L8.61 14.88L9.97 14.88L9.97 9.10ZM15.41 7.88L14.06 7.88L14.06 14.88L15.41 14.88ZM13.99 6.16L15.48 6.16L15.48 4.66L13.99 4.66ZM18.73 12.01L21.55 12.01L21.55 13.73L18.73 13.73ZM19.00 14.95L20.55 14.95L21.55 14.38L22.54 14.95L22.90 14.95L22.90 8.82L21.28 7.88L18.07 7.88L18.07 9.10L21.55 9.10L21.55 10.79L19.00 10.79L17.37 11.73L17.37 14.01ZM31.09 8.75L29.47 7.81L27.50 7.81L26.50 8.39L26.17 7.81L25.14 7.81L25.14 14.88L26.50 14.88L26.50 9.03L29.74 9.03L29.74 14.88L31.09 14.88Z"></path></g><!----><!----></svg>