<svg data-v-fde0c5aa="" xmlns="http://www.w3.org/2000/svg" viewBox="0 0 300 300" class="font"><!----><defs data-v-fde0c5aa=""><!----></defs><rect data-v-fde0c5aa="" fill="transparent" x="0" y="0" width="300px" height="300px" class="logo-background-square"></rect><defs data-v-fde0c5aa=""><linearGradient data-v-fde0c5aa="" gradientTransform="rotate(25)" id="68f671f1-e9aa-4a1e-93cd-6e3b0ea4a4ce" x1="0%" y1="0%" x2="100%" y2="0%"><stop data-v-fde0c5aa="" offset="0%" stop-color="#08C7D6" stop-opacity="1"></stop><stop data-v-fde0c5aa="" offset="100%" stop-color="#02023E" stop-opacity="1"></stop></linearGradient></defs><g data-v-fde0c5aa="" id="56f38eb6-9456-4345-861e-dc4789879650" fill="url(#68f671f1-e9aa-4a1e-93cd-6e3b0ea4a4ce)" transform="matrix(7.2727272727272725,0,0,7.2727272727272725,33.89090884815563,78.69091033935547)"><path d="M2.20 12.01L5.01 12.01L5.01 13.73L2.20 13.73ZM2.46 14.95L4.02 14.95L5.01 14.38L6.01 14.95L6.37 14.95L6.37 8.82L4.75 7.88L1.54 7.88L1.54 9.10L5.01 9.10L5.01 10.79L2.46 10.79L0.84 11.73L0.84 14.01ZM12.52 9.10L12.52 7.88L10.96 7.88L9.97 8.46L9.63 7.88L8.61 7.88L8.61 14.88L9.97 14.88L9.97 9.10ZM15.41 7.88L14.06 7.88L14.06 14.88L15.41 14.88ZM13.99 6.16L15.48 6.16L15.48 4.66L13.99 4.66ZM18.73 12.01L21.55 12.01L21.55 13.73L18.73 13.73ZM19.00 14.95L20.55 14.95L21.55 14.38L22.54 14.95L22.90 14.95L22.90 8.82L21.28 7.88L18.07 7.88L18.07 9.10L21.55 9.10L21.55 10.79L19.00 10.79L17.37 11.73L17.37 14.01ZM31.09 8.75L29.47 7.81L27.50 7.81L26.50 8.39L26.17 7.81L25.14 7.81L25.14 14.88L26.50 14.88L26.50 9.03L29.74 9.03L29.74 14.88L31.09 14.88Z"></path></g><!----><!----></svg>